<?xml version="1.0" encoding="UTF-8" standalone="no"?>
<svg
   xmlns:dc="http://purl.org/dc/elements/1.1/"
   xmlns:cc="http://creativecommons.org/ns#"
   xmlns:rdf="http://www.w3.org/1999/02/22-rdf-syntax-ns#"
   xmlns:svg="http://www.w3.org/2000/svg"
   xmlns="http://www.w3.org/2000/svg"
   viewBox="0 0 334.81332 318.12"
   height="318.12"
   width="334.81332"
   xml:space="preserve"
   id="svg2"
   version="1.1"><metadata
     id="metadata8"><rdf:RDF><cc:Work
         rdf:about=""><dc:format>image/svg+xml</dc:format><dc:type
           rdf:resource="http://purl.org/dc/dcmitype/StillImage" /></cc:Work></rdf:RDF></metadata><defs
     id="defs6" /><g
     transform="matrix(1.3333333,0,0,-1.3333333,0,318.12)"
     id="g10"><g
       transform="scale(0.1)"
       id="g12"><path
         id="path14"
         style="fill:#fffefe;fill-opacity:1;fill-rule:nonzero;stroke:none"
         d="M 17.5547,2.17969 C 117.371,132.5 205.309,253.539 282.32,382.309 c 19.731,33 21.231,54.281 -4.984,86.711 C 105.52,681.531 13.2461,925.07 0.289063,1198.75 c -1.949223,41.18 4.902347,57.18 52.386737,57.08 801.4692,-1.68 1602.9442,-1.64 2404.4242,-0.08 45.82,0.08 57.18,-13.1 53.31,-56.13 C 2500.59,1090.64 2482.4,985 2450.54,878.789 2368.06,603.762 2203.71,393.219 1975.73,226.699 1586.17,-57.8203 1009.6,-77.3398 603.629,184.031 550.852,218 514.406,223.539 459.449,187.93 335.891,107.898 197.328,57.9883 58.1016,11.4492 49.0391,8.42188 39.4063,7.10938 17.5547,2.17969" /><path
         id="path16"
         style="fill:#fffefe;fill-opacity:1;fill-rule:nonzero;stroke:none"
         d="m 502.652,2146.21 c -76.523,55.64 -184.394,39.66 -242.554,-32.76 -63.102,-78.57 -56.375,-192.89 15.175,-258.05 77.032,-70.15 188.028,-69.54 261.602,1.45 67.656,65.27 77.371,166.65 20.234,235.2 -9.722,-36.03 -21.625,-70.44 -67.066,-66.44 -27.406,2.41 -46.973,17.58 -51.543,45.96 -7.543,46.8 28.91,60.43 64.152,74.64 z m 295.45,-154.47 c 0.316,-214.86 -175.731,-391.47 -390.938,-392.2 -217.629,-0.73 -394.9179,176.1 -394.621,393.59 0.289,214.6 177.469,392.61 390.926,392.78 217.687,0.16 394.316,-176.25 394.633,-394.17" /><path
         id="path18"
         style="fill:#fffefe;fill-opacity:1;fill-rule:nonzero;stroke:none"
         d="m 2193.29,2143.99 c -81.02,58.27 -184.61,42.91 -245.68,-30.85 -64.76,-78.24 -58.99,-187.2 13.64,-257.14 71.96,-69.3 182.1,-70.5 257.93,-2.79 67.68,60.44 80.35,169.05 23.81,240.08 -8.02,-41.77 -25.95,-73.02 -71.82,-66.99 -27.96,3.68 -44.35,23.39 -45.74,51.39 -2.08,41.75 26.47,57.4 67.86,66.3 z m 292.22,-152.19 c -0.32,-216.21 -178.92,-392.69 -396.78,-392.07 -215.42,0.63 -388,175.27 -388.68,393.32 -0.65,214.84 175.84,392.63 390,392.87 216.15,0.24 395.79,-178.79 395.46,-394.12" /><path
         id="path20"
         style="fill:#2f3032;fill-opacity:1;fill-rule:nonzero;stroke:none"
         d="M 502.652,2146.21 C 467.41,2132 430.957,2118.37 438.5,2071.57 c 4.57,-28.38 24.137,-43.55 51.543,-45.96 45.441,-4 57.344,30.41 67.066,66.44 57.137,-68.55 47.422,-169.93 -20.234,-235.2 -73.574,-70.99 -184.57,-71.6 -261.602,-1.45 -71.55,65.16 -78.277,179.48 -15.175,258.05 58.16,72.42 166.031,88.4 242.554,32.76" /><path
         id="path22"
         style="fill:#2f3032;fill-opacity:1;fill-rule:nonzero;stroke:none"
         d="m 2193.29,2143.99 c -41.39,-8.9 -69.94,-24.55 -67.86,-66.3 1.39,-28 17.78,-47.71 45.74,-51.39 45.87,-6.03 63.8,25.22 71.82,66.99 56.54,-71.03 43.87,-179.64 -23.81,-240.08 -75.83,-67.71 -185.97,-66.51 -257.93,2.79 -72.63,69.94 -78.4,178.9 -13.64,257.14 61.07,73.76 164.66,89.12 245.68,30.85" /></g></g></svg>